# Blender v2.79 (sub 6) OBJ File: ''
# www.blender.org
mtllib cube.mtl
o Cube_Cube.001
v 1.000000 -1.000000 -1.000000
v 1.000000 -1.000000 1.000000
v -1.000000 -1.000000 1.000000
v -1.000000 -1.000000 -1.000000
v 1.000000 1.000000 -1.000000
v 0.999999 1.000000 1.000000
v -1.000000 1.000000 0.999999
v -1.000000 1.000000 -1.000000
vt 0.333134 0.333533
vt 0.333133 0.666467
vt 0.000200 0.666467
vt 0.000200 0.333533
vt 0.333134 0.666866
vt 0.333133 0.999800
vt 0.000200 0.999800
vt 0.000200 0.666866
vt 0.333533 0.666467
vt 0.333533 0.333533
vt 0.666467 0.333533
vt 0.666467 0.666467
vt 0.999800 0.000200
vt 0.999800 0.333134
vt 0.666866 0.333134
vt 0.666866 0.000200
vt 0.333134 0.333133
vt 0.000200 0.333134
vt 0.000200 0.000200
vt 0.333133 0.000200
vt 0.666467 0.000200
vt 0.666467 0.333134
vt 0.333533 0.333134
vt 0.333533 0.000200
vn 1.0000 0.0000 0.0000
vn -0.0000 0.0000 1.0000
vn 0.0000 0.0000 -1.0000
vn -1.0000 -0.0000 -0.0000
vn 0.0000 1.0000 -0.0000
vn -0.0000 -1.0000 0.0000
usemtl Right
s 1
f 1/1/1 5/2/1 6/3/1 2/4/1
usemtl Front
f 2/5/2 6/6/2 7/7/2 3/8/2
usemtl Back
f 5/9/3 1/10/3 4/11/3 8/12/3
usemtl Left
f 3/13/4 7/14/4 8/15/4 4/16/4
usemtl Top
f 5/17/5 8/18/5 7/19/5 6/20/5
usemtl Bottom
f 1/21/6 2/22/6 3/23/6 4/24/6
